<svg xmlns="http://www.w3.org/2000/svg" viewBox="0 0 886.92 804.12"><defs><style>.cls-1,.cls-2,.cls-6{fill:#000511;}.cls-1,.cls-2,.cls-7{stroke:#000511;stroke-width:3px;}.cls-1,.cls-2,.cls-3,.cls-4,.cls-5,.cls-7{stroke-miterlimit:10;}.cls-2{opacity:0.1;}.cls-3{fill:#04a025;}.cls-3,.cls-4,.cls-5{stroke:#e8efe9;stroke-width:0.25px;}.cls-4{fill:#05e83b;}.cls-6{font-size:293.47px;font-family:AzonixRegular, Azonix;}.cls-8{fill:#c63b0a;}</style></defs><title>gael 3</title><g id="Camada_3" data-name="Camada 3"><path class="cls-1" d="M922.8,604c14.16,63.61,13.84,117.8-.71,121S895,677,880.83,613.37,856.24,498,870.8,494.71,908.64,540.42,922.8,604Z" transform="translate(-344 -299.4)"/><path class="cls-1" d="M611.2,605.51c-10.58,64.3-7.23,118.4,7.49,120.82s24.36-49.53,34.94-113.84,18.09-116.61,3.37-119S621.78,541.2,611.2,605.51Z" transform="translate(-344 -299.4)"/><path class="cls-1" d="M876,609.5C876,714.16,807.91,799,764.5,799,723.65,799,653,714.16,653,609.5c0-34.13,4.53-84,7.56-113.52,1.27-12.36,12.72-18,24.39-15.6,68,14.18,95.56,17.82,164.4-1.61,8.69-2.45,17.54,2.06,18.54,11.41C870.89,518,876,571.28,876,609.5Z" transform="translate(-344 -299.4)"/><ellipse class="cls-1" cx="420.5" cy="85.91" rx="99.28" ry="84.41"/><ellipse class="cls-2" cx="422.4" cy="103.88" rx="99.28" ry="84.41"/><ellipse class="cls-2" cx="422.6" cy="532.29" rx="57.35" ry="9"/><rect class="cls-3" x="487.9" y="91.06" width="13.1" height="8.54"/><rect class="cls-3" x="487.9" y="82.52" width="13.1" height="8.54"/><rect class="cls-3" x="487.9" y="73.98" width="13.1" height="8.54"/><rect class="cls-3" x="487.9" y="65.44" width="13.1" height="8.54"/><rect class="cls-3" x="474.8" y="99.6" width="13.1" height="8.54"/><rect class="cls-3" x="474.8" y="91.06" width="13.1" height="8.54"/><rect class="cls-4" x="474.8" y="82.52" width="13.1" height="8.54"/><rect class="cls-4" x="474.8" y="73.98" width="13.1" height="8.54"/><rect class="cls-4" x="474.8" y="65.44" width="13.1" height="8.54"/><rect class="cls-4" x="474.8" y="56.9" width="13.1" height="8.54"/><rect class="cls-3" x="461.7" y="99.6" width="13.1" height="8.54"/><rect class="cls-4" x="461.7" y="91.06" width="13.1" height="8.54"/><rect class="cls-4" x="461.7" y="82.52" width="13.1" height="8.54"/><rect class="cls-5" x="461.7" y="73.98" width="13.1" height="8.54"/><rect class="cls-4" x="461.7" y="65.44" width="13.1" height="8.54"/><rect class="cls-4" x="461.7" y="56.9" width="13.1" height="8.54"/><rect class="cls-3" x="448.6" y="99.6" width="13.1" height="8.54"/><rect class="cls-4" x="448.6" y="91.06" width="13.1" height="8.54"/><rect class="cls-4" x="448.6" y="82.52" width="13.1" height="8.54"/><rect class="cls-4" x="448.6" y="73.98" width="13.1" height="8.54"/><rect class="cls-5" x="448.6" y="65.44" width="13.1" height="8.54"/><rect class="cls-4" x="448.6" y="56.9" width="13.1" height="8.54"/><rect class="cls-4" x="448.6" y="48.36" width="13.1" height="8.54"/><rect class="cls-3" x="435.5" y="99.6" width="13.1" height="8.54"/><rect class="cls-4" x="435.5" y="91.06" width="13.1" height="8.54"/><rect class="cls-4" x="435.5" y="82.52" width="13.1" height="8.54"/><rect class="cls-5" x="435.5" y="73.98" width="13.1" height="8.54"/><rect class="cls-4" x="435.5" y="65.44" width="13.1" height="8.54"/><rect class="cls-4" x="435.5" y="56.9" width="13.1" height="8.54"/><rect class="cls-4" x="435.5" y="48.36" width="13.1" height="8.54"/><rect class="cls-4" x="435.5" y="39.82" width="13.1" height="8.54"/><rect class="cls-4" x="422.4" y="99.6" width="13.1" height="8.54"/><rect class="cls-4" x="422.4" y="91.06" width="13.1" height="8.54"/><rect class="cls-4" x="422.4" y="82.52" width="13.1" height="8.54"/><rect class="cls-4" x="422.4" y="73.98" width="13.1" height="8.54"/><rect class="cls-4" x="422.4" y="65.44" width="13.1" height="8.54"/><rect class="cls-4" x="422.4" y="56.9" width="13.1" height="8.54"/><rect class="cls-4" x="422.4" y="48.36" width="13.1" height="8.54"/><rect class="cls-4" x="422.4" y="39.82" width="13.1" height="8.54"/><rect class="cls-4" x="409.3" y="99.6" width="13.1" height="8.54"/><rect class="cls-4" x="409.3" y="91.06" width="13.1" height="8.54"/><rect class="cls-4" x="409.3" y="82.52" width="13.1" height="8.54"/><rect class="cls-4" x="409.3" y="73.98" width="13.1" height="8.54"/><rect class="cls-4" x="409.3" y="65.44" width="13.1" height="8.54"/><rect class="cls-4" x="409.3" y="56.9" width="13.1" height="8.54"/><rect class="cls-4" x="409.3" y="48.36" width="13.1" height="8.54"/><rect class="cls-4" x="409.3" y="39.82" width="13.1" height="8.54"/><rect class="cls-4" x="396.2" y="99.6" width="13.1" height="8.54"/><rect class="cls-4" x="396.2" y="91.06" width="13.1" height="8.54"/><rect class="cls-4" x="396.2" y="82.52" width="13.1" height="8.54"/><rect class="cls-5" x="396.2" y="73.98" width="13.1" height="8.54"/><rect class="cls-4" x="396.2" y="65.44" width="13.1" height="8.54"/><rect class="cls-4" x="396.2" y="56.9" width="13.1" height="8.54"/><rect class="cls-4" x="396.2" y="48.36" width="13.1" height="8.54"/><rect class="cls-4" x="396.2" y="39.82" width="13.1" height="8.54"/><rect class="cls-4" x="383.1" y="99.6" width="13.1" height="8.54"/><rect class="cls-4" x="383.1" y="91.06" width="13.1" height="8.54"/><rect class="cls-4" x="383.1" y="82.52" width="13.1" height="8.54"/><rect class="cls-4" x="383.1" y="73.98" width="13.1" height="8.54"/><rect class="cls-5" x="383.1" y="65.44" width="13.1" height="8.54"/><rect class="cls-4" x="383.1" y="56.9" width="13.1" height="8.54"/><rect class="cls-4" x="383.1" y="48.36" width="13.1" height="8.54"/><rect class="cls-4" x="383.1" y="39.82" width="13.1" height="8.54"/><rect class="cls-4" x="370" y="99.6" width="13.1" height="8.54"/><rect class="cls-4" x="370" y="91.06" width="13.1" height="8.54"/><rect class="cls-4" x="370" y="82.52" width="13.1" height="8.54"/><rect class="cls-5" x="370" y="73.98" width="13.1" height="8.54"/><rect class="cls-4" x="370" y="65.44" width="13.1" height="8.54"/><rect class="cls-4" x="370" y="56.9" width="13.1" height="8.54"/><rect class="cls-4" x="370" y="48.36" width="13.1" height="8.54"/><rect class="cls-4" x="356.9" y="91.06" width="13.1" height="8.54"/><rect class="cls-4" x="356.9" y="82.52" width="13.1" height="8.54"/><rect class="cls-4" x="356.9" y="73.98" width="13.1" height="8.54"/><rect class="cls-4" x="356.9" y="65.44" width="13.1" height="8.54"/><rect class="cls-4" x="356.9" y="56.9" width="13.1" height="8.54"/><rect class="cls-4" x="343.8" y="91.06" width="13.1" height="8.54"/><rect class="cls-4" x="343.8" y="82.52" width="13.1" height="8.54"/><rect class="cls-4" x="343.8" y="73.98" width="13.1" height="8.54"/><rect class="cls-4" x="343.8" y="65.44" width="13.1" height="8.54"/></g><g id="Camada_4" data-name="Camada 4"><text class="cls-6" transform="translate(1.5 748.91)"><tspan class="cls-7">GA</tspan><tspan class="cls-8" x="450.47" y="0">E</tspan><tspan class="cls-7" x="685.24" y="0">L</tspan></text></g></svg>